#!OML:ASF H:\ManfredObstacles\Project 1\Capture day 2\Session 1\male.ASF
:FULLY-SPECIFIED
:DEGREES
449
root 2.51401 15.9832 -25.4996 -166.379 3.46158 -177.422
lowerback 1.39349 -1.95619 0.952239
upperback 1.86712 -2.55278 1.48784
thorax 1.15789 -1.24815 0.999741
lowerneck -31.9581 3.12562 4.56714
upperneck 34.1707 5.13694 -4.06254
head 18.498 2.35167 -1.30945
rclavicle -1.63749e-014 9.64106e-015
rhumerus -61.2614 5.23527 -86.968
rradius 79.1231
rwrist 4.83018
rhand -16.7307 -12.0565
rfingers 7.12502
rthumb 9.49514 -41.8226
lclavicle -1.63749e-014 9.64106e-015
lhumerus -54.1584 -23.9173 96.5421
lradius 99.5739
lwrist -24.7483
lhand -16.4345 11.2147
lfingers 7.12502
lthumb 9.78098 40.9676
rfemur -22.2814 4.60926 26.7946
rtibia 36.3081
rfoot -4.68845 -10.2325
rtoes -29.5238
lfemur -14.5835 3.77135 -17.7582
ltibia 67.5114
lfoot 17.0012 10.0124
ltoes -2.28374
450
root 2.52581 15.9276 -25.7318 -166.593 3.67844 -177.154
lowerback 1.67575 -1.60773 1.02927
upperback 1.89214 -2.07541 1.56591
thorax 1.02033 -1.0062 1.04305
lowerneck -32.1952 2.97981 4.46222
upperneck 34.111 4.90687 -4.00805
head 18.4999 2.24616 -1.32294
rclavicle 1.38652e-014 1.88845e-015
rhumerus -59.0282 5.70128 -88.2096
rradius 79.6209
rwrist 5.23351
rhand -16.9665 -11.8289
rfingers 7.12502
rthumb 9.26768 -41.6052
lclavicle 1.38652e-014 1.88845e-015
lhumerus -54.842 -22.8201 96.5236
lradius 98.805
lwrist -24.3687
lhand -16.2668 11.8987
lfingers 7.12502
lthumb 9.94275 41.6439
rfemur -21.1404 4.74157 27.1476
rtibia 36.5429
rfoot -5.26115 -10.5449
rtoes -29.89
lfemur -16.253 4.18512 -17.2808
ltibia 69.8537
lfoot 15.9659 11.04
ltoes -2.55102
451
root 2.53641 15.8817 -25.9644 -166.72 3.87321 -176.994
lowerback 1.85064 -1.276 1.03909
upperback 1.92391 -1.62528 1.58729
thorax 0.950318 -0.779281 1.05981
lowerneck -32.4907 2.84151 4.38608
upperneck 34.0592 4.65396 -3.92661
head 18.5189 2.13771 -1.33472
rclavicle -3.31349e-014 1.51573e-014
rhumerus -56.6822 6.28765 -89.489
rradius 80.1122
rwrist 5.70528
rhand -17.1945 -11.4192
rfingers 7.12502
rthumb 9.04768 -41.2052
lclavicle -3.31349e-014 1.51573e-014
lhumerus -55.5538 -21.795 96.3868
lradius 98.2103
lwrist -23.7569
lhand -16.1566 12.4552
lfingers 7.12502
lthumb 10.049 42.1952
rfemur -20.1073 4.86797 27.3588
rtibia 36.7577
rfoot -5.69794 -10.7687
rtoes -30.2891
lfemur -18.0498 4.49848 -16.9496
ltibia 71.9387
lfoot 14.9856 12.1044
ltoes -2.77128
452
root 2.54564 15.8449 -26.198 -166.739 4.01864 -176.906
lowerback 1.90714 -0.960613 1.03692
upperback 1.91389 -1.20302 1.55598
thorax 0.903026 -0.567963 1.02584
lowerneck -32.6856 2.69091 4.32703
upperneck 33.9681 4.36359 -3.81549
head 18.4894 2.02371 -1.34495
rclavicle -7.25564e-015 2.29099e-014
rhumerus -54.3462 6.96355 -90.7856
rradius 80.623
rwrist 6.29517
rhand -17.3488 -10.869
rfingers 7.12502
rthumb 8.89875 -40.6613
lclavicle -7.25564e-015 2.29099e-014
lhumerus -56.3893 -20.8734 96.1749
lradius 97.8038
lwrist -22.993
lhand -16.1552 12.8094
lfingers 7.12502
lthumb 10.0504 42.5494
rfemur -19.1834 4.97711 27.4693
rtibia 36.9185
rfoot -5.98573 -10.9091
rtoes -30.75
lfemur -19.993 4.69383 -16.7298
ltibia 73.7553
lfoot 14.0599 13.1797
ltoes -2.83336
453
root 2.55312 15.8169 -26.434 -166.696 4.1119 -176.854
lowerback 1.8785 -0.660916 1.06049
upperback 1.88424 -0.805362 1.4816
thorax 0.883055 -0.369508 0.931919
lowerneck -32.8637 2.50478 4.24303
upperneck 33.9131 4.01295 -3.63557
head 18.4697 1.89595 -1.33349
rclavicle 2.73329e-016 -5.71506e-015
rhumerus -52.0389 7.71832 -92.0764
rradius 81.1723
rwrist 6.9879
rhand -17.4056 -10.2216
rfingers 7.12502
rthumb 8.84395 -40.0163
lclavicle 2.73329e-016 -5.71506e-015
lhumerus -57.3099 -20.0825 95.8865
lradius 97.5764
lwrist -22.1544
lhand -16.27 12.9452
lfingers 7.12502
lthumb 9.93967 42.6905
rfemur -18.29 5.05061 27.5284
rtibia 36.9884
rfoot -6.11989 -10.9567
rtoes -31.2726
lfemur -22.0049 4.77492 -16.5762
ltibia 75.282
lfoot 13.1838 14.2461
ltoes -2.80639
